<?xml version="1.0" encoding="UTF-8"?>
<svg id="Layer_1" data-name="Layer 1" xmlns="http://www.w3.org/2000/svg" viewBox="0 0 36 36">
  <path d="M33.65,13.78c.46,1.5.48,2.96.06,4.38-.44,1.44-1.22,2.75-2.34,3.92-1.12,1.18-2.56,2.18-4.31,3.02-1.75.85-3.73,1.44-5.94,1.75-1.44.21-2.87.28-4.3.22-1.43-.06-2.8-.24-4.11-.53.56.02,1.13.02,1.7-.02.57-.03,1.15-.09,1.73-.17,1.77-.25,3.35-.71,4.75-1.38,1.42-.69,2.58-1.5,3.48-2.45.91-.95,1.54-1.99,1.89-3.14.33-1.15.31-2.32-.06-3.53-.38-1.19-1.06-2.26-2.06-3.22-1-.96-2.2-1.74-3.61-2.36-1.41-.61-2.95-1.04-4.64-1.27-1.69-.23-3.42-.22-5.19.03-.96.15-1.88.35-2.75.62-.85.27-1.65.59-2.39.97-.74.38-1.41.8-2.02,1.28-.6.46-1.12.96-1.56,1.5.35-.98.91-1.91,1.66-2.78.75-.9,1.66-1.7,2.72-2.41,1.06-.71,2.27-1.31,3.62-1.81,1.35-.5,2.81-.86,4.38-1.09,2.21-.31,4.36-.32,6.47-.03,2.1.27,4.03.79,5.77,1.56,1.74.77,3.23,1.75,4.48,2.94,1.23,1.19,2.08,2.52,2.56,4ZM6.74,27.71l13.63-8.16-1.75,6.72,3.41,4.66-15.28-3.22Z"/>
</svg>